<svg width="30" height="30" viewBox="0 0 30 30" fill="none" xmlns="http://www.w3.org/2000/svg">
<path opacity="0.6" d="M0.670044 2.51022V27.4302C0.670044 27.9713 0.884971 28.4901 1.26755 28.8727C1.65012 29.2553 2.169 29.4702 2.71004 29.4702H27.63C27.8979 29.4702 28.1632 29.4174 28.4107 29.3149C28.6582 29.2124 28.8831 29.0621 29.0725 28.8727C29.262 28.6833 29.4122 28.4584 29.5148 28.2109C29.6173 27.9634 29.67 27.6981 29.67 27.4302V2.51022C29.67 1.96917 29.4551 1.45029 29.0725 1.06772C28.69 0.685144 28.1711 0.470215 27.63 0.470215H2.71004C2.169 0.470215 1.65012 0.685144 1.26755 1.06772C0.884971 1.45029 0.670044 1.96917 0.670044 2.51022ZM19.87 7.27522C20.5405 7.27455 21.1838 7.54026 21.6583 8.01388C22.1329 8.4875 22.3999 9.13025 22.4005 9.80072C22.4012 10.4712 22.1355 11.1145 21.6619 11.589C21.1883 12.0636 20.5455 12.3306 19.875 12.3312C19.5431 12.3315 19.2143 12.2665 18.9074 12.1397C18.6006 12.013 18.3217 11.8271 18.0867 11.5926C17.8518 11.358 17.6653 11.0795 17.5379 10.7729C17.4106 10.4664 17.3449 10.1377 17.3445 9.80571C17.3442 9.47373 17.4093 9.14494 17.536 8.8381C17.6628 8.53126 17.8487 8.2524 18.0832 8.01742C18.3177 7.78244 18.5962 7.59595 18.9028 7.46861C19.2094 7.34126 19.5381 7.27554 19.87 7.27522ZM13.643 21.6982H6.26004L12.724 13.8782L16.414 18.3532L18.863 15.3862L24.08 21.6982H13.643Z" fill="white"/>
</svg>
